<mxfile host="Electron" modified="2024-03-27T13:12:47.224Z" agent="Mozilla/5.0 (Macintosh; Intel Mac OS X 10_15_7) AppleWebKit/537.36 (KHTML, like Gecko) draw.io/24.1.0 Chrome/120.0.6099.109 Electron/28.1.0 Safari/537.36" etag="5QNNrRi5A7_Ah3RWhrIQ" version="24.1.0" type="device">
  <diagram name="Page-1" id="QK5RZ8yjPA_ozSYLNsLS">
    <mxGraphModel dx="993" dy="854" grid="1" gridSize="10" guides="1" tooltips="1" connect="0" arrows="0" fold="1" page="1" pageScale="1" pageWidth="1100" pageHeight="850" math="0" shadow="0">
      <root>
        <mxCell id="0" />
        <mxCell id="1" parent="0" />
        <mxCell id="i8nAKIxyEa4UH_frVO4T-12" value="" style="group" parent="1" vertex="1" connectable="0">
          <mxGeometry x="80" y="490" width="240" height="90" as="geometry" />
        </mxCell>
        <mxCell id="i8nAKIxyEa4UH_frVO4T-5" value="" style="rounded=1;whiteSpace=wrap;html=1;strokeWidth=3;container=0;" parent="i8nAKIxyEa4UH_frVO4T-12" vertex="1">
          <mxGeometry y="10" width="240" height="70" as="geometry" />
        </mxCell>
        <mxCell id="i8nAKIxyEa4UH_frVO4T-6" value="&lt;p style=&quot;margin: 0px; font-variant-numeric: normal; font-variant-east-asian: normal; font-variant-alternates: normal; font-kerning: auto; font-optical-sizing: auto; font-feature-settings: normal; font-variation-settings: normal; font-variant-position: normal; font-stretch: normal; font-size: 36px; line-height: normal; text-align: start;&quot; class=&quot;p1&quot;&gt;Database&lt;/p&gt;" style="text;strokeColor=none;align=center;fillColor=none;html=1;verticalAlign=middle;whiteSpace=wrap;rounded=0;container=0;" parent="i8nAKIxyEa4UH_frVO4T-12" vertex="1">
          <mxGeometry x="5" width="230" height="90" as="geometry" />
        </mxCell>
        <mxCell id="i8nAKIxyEa4UH_frVO4T-13" value="" style="group;fillColor=none;" parent="1" vertex="1" connectable="0">
          <mxGeometry x="360" y="490" width="240" height="90" as="geometry" />
        </mxCell>
        <mxCell id="i8nAKIxyEa4UH_frVO4T-14" value="" style="rounded=1;whiteSpace=wrap;html=1;strokeWidth=3;container=0;fillColor=none;" parent="i8nAKIxyEa4UH_frVO4T-13" vertex="1">
          <mxGeometry y="10" width="240" height="70" as="geometry" />
        </mxCell>
        <mxCell id="i8nAKIxyEa4UH_frVO4T-15" value="&lt;p style=&quot;margin: 0px; font-variant-numeric: normal; font-variant-east-asian: normal; font-variant-alternates: normal; font-kerning: auto; font-optical-sizing: auto; font-feature-settings: normal; font-variation-settings: normal; font-variant-position: normal; font-stretch: normal; font-size: 36px; line-height: normal; text-align: start;&quot; class=&quot;p1&quot;&gt;File system&lt;/p&gt;" style="text;strokeColor=none;align=center;fillColor=none;html=1;verticalAlign=middle;whiteSpace=wrap;rounded=0;container=0;" parent="i8nAKIxyEa4UH_frVO4T-13" vertex="1">
          <mxGeometry x="5" width="230" height="90" as="geometry" />
        </mxCell>
        <mxCell id="GTZEqGsYLn5fTDWphI8U-33" value="" style="ellipse;whiteSpace=wrap;html=1;aspect=fixed;fillColor=#000000;" parent="i8nAKIxyEa4UH_frVO4T-13" vertex="1">
          <mxGeometry x="175" y="15" width="10" height="10" as="geometry" />
        </mxCell>
        <mxCell id="GTZEqGsYLn5fTDWphI8U-36" value="" style="ellipse;whiteSpace=wrap;html=1;aspect=fixed;fillColor=#000000;" parent="i8nAKIxyEa4UH_frVO4T-13" vertex="1">
          <mxGeometry x="75" y="15" width="10" height="10" as="geometry" />
        </mxCell>
        <mxCell id="GTZEqGsYLn5fTDWphI8U-50" value="" style="endArrow=classic;html=1;rounded=0;strokeWidth=2;entryX=0;entryY=0.5;entryDx=0;entryDy=0;" parent="i8nAKIxyEa4UH_frVO4T-13" target="GTZEqGsYLn5fTDWphI8U-36" edge="1">
          <mxGeometry width="50" height="50" relative="1" as="geometry">
            <mxPoint x="30" y="20" as="sourcePoint" />
            <mxPoint x="20" y="-160" as="targetPoint" />
          </mxGeometry>
        </mxCell>
        <mxCell id="GTZEqGsYLn5fTDWphI8U-23" value="" style="group;fillColor=none;" parent="1" vertex="1" connectable="0">
          <mxGeometry x="450" y="242" width="190" height="216" as="geometry" />
        </mxCell>
        <mxCell id="GTZEqGsYLn5fTDWphI8U-6" value="" style="rounded=1;whiteSpace=wrap;html=1;strokeWidth=3;" parent="GTZEqGsYLn5fTDWphI8U-23" vertex="1">
          <mxGeometry x="10" width="180" height="216" as="geometry" />
        </mxCell>
        <mxCell id="GTZEqGsYLn5fTDWphI8U-7" value="&lt;font style=&quot;font-size: 24px;&quot;&gt;Compute Node&lt;/font&gt;" style="text;strokeColor=none;align=center;fillColor=none;html=1;verticalAlign=middle;whiteSpace=wrap;rounded=0;" parent="GTZEqGsYLn5fTDWphI8U-23" vertex="1">
          <mxGeometry x="13.5" y="6" width="171.5" height="30" as="geometry" />
        </mxCell>
        <mxCell id="GTZEqGsYLn5fTDWphI8U-8" value="&lt;font style=&quot;font-size: 18px;&quot;&gt;StarExec&lt;/font&gt;&lt;div style=&quot;font-size: 18px;&quot;&gt;&lt;font style=&quot;font-size: 18px;&quot;&gt;compute node&lt;/font&gt;&lt;/div&gt;&lt;div style=&quot;font-size: 18px;&quot;&gt;&lt;font style=&quot;font-size: 18px;&quot;&gt;container&lt;/font&gt;&lt;/div&gt;" style="text;strokeColor=none;align=center;fillColor=none;html=1;verticalAlign=middle;whiteSpace=wrap;rounded=0;" parent="GTZEqGsYLn5fTDWphI8U-23" vertex="1">
          <mxGeometry x="17.5" y="46" width="165" height="64" as="geometry" />
        </mxCell>
        <mxCell id="GTZEqGsYLn5fTDWphI8U-9" value="&lt;ul style=&quot;font-size: 18px;&quot;&gt;&lt;li&gt;&lt;font style=&quot;font-size: 18px;&quot;&gt;Control&lt;/font&gt;&lt;/li&gt;&lt;li&gt;BenchExec&lt;/li&gt;&lt;li&gt;&lt;font style=&quot;font-size: 18px;&quot;&gt;ATP system&lt;/font&gt;&lt;/li&gt;&lt;li&gt;&lt;font style=&quot;font-size: 18px;&quot;&gt;Problem&lt;/font&gt;&lt;/li&gt;&lt;/ul&gt;" style="text;strokeColor=none;align=left;fillColor=none;html=1;verticalAlign=middle;whiteSpace=wrap;rounded=0;" parent="GTZEqGsYLn5fTDWphI8U-23" vertex="1">
          <mxGeometry y="120" width="165" height="90" as="geometry" />
        </mxCell>
        <mxCell id="GTZEqGsYLn5fTDWphI8U-10" value="" style="endArrow=none;html=1;rounded=0;strokeWidth=2;" parent="GTZEqGsYLn5fTDWphI8U-23" edge="1">
          <mxGeometry width="50" height="50" relative="1" as="geometry">
            <mxPoint x="10" y="39" as="sourcePoint" />
            <mxPoint x="190" y="39" as="targetPoint" />
          </mxGeometry>
        </mxCell>
        <mxCell id="GTZEqGsYLn5fTDWphI8U-11" style="edgeStyle=orthogonalEdgeStyle;rounded=0;orthogonalLoop=1;jettySize=auto;html=1;exitX=0.5;exitY=1;exitDx=0;exitDy=0;" parent="GTZEqGsYLn5fTDWphI8U-23" source="GTZEqGsYLn5fTDWphI8U-6" target="GTZEqGsYLn5fTDWphI8U-6" edge="1">
          <mxGeometry relative="1" as="geometry" />
        </mxCell>
        <mxCell id="GTZEqGsYLn5fTDWphI8U-89" value="" style="endArrow=none;html=1;rounded=0;strokeWidth=2;" parent="GTZEqGsYLn5fTDWphI8U-23" edge="1">
          <mxGeometry width="50" height="50" relative="1" as="geometry">
            <mxPoint x="149" y="135" as="sourcePoint" />
            <mxPoint x="169" y="135" as="targetPoint" />
          </mxGeometry>
        </mxCell>
        <mxCell id="GTZEqGsYLn5fTDWphI8U-54" value="" style="endArrow=classic;html=1;rounded=0;strokeWidth=2;entryX=0.182;entryY=0.089;entryDx=0;entryDy=0;entryPerimeter=0;" parent="GTZEqGsYLn5fTDWphI8U-23" edge="1">
          <mxGeometry width="50" height="50" relative="1" as="geometry">
            <mxPoint x="-10" y="133" as="sourcePoint" />
            <mxPoint x="30.029999999999973" y="133.01" as="targetPoint" />
          </mxGeometry>
        </mxCell>
        <mxCell id="GTZEqGsYLn5fTDWphI8U-24" value="" style="group" parent="1" vertex="1" connectable="0">
          <mxGeometry x="750" y="242" width="190" height="216" as="geometry" />
        </mxCell>
        <mxCell id="GTZEqGsYLn5fTDWphI8U-25" value="" style="rounded=1;whiteSpace=wrap;html=1;strokeWidth=3;fillColor=default;" parent="GTZEqGsYLn5fTDWphI8U-24" vertex="1">
          <mxGeometry x="10" width="180" height="216" as="geometry" />
        </mxCell>
        <mxCell id="GTZEqGsYLn5fTDWphI8U-26" value="&lt;font style=&quot;font-size: 24px;&quot;&gt;Compute Node&lt;/font&gt;" style="text;strokeColor=none;align=center;fillColor=none;html=1;verticalAlign=middle;whiteSpace=wrap;rounded=0;" parent="GTZEqGsYLn5fTDWphI8U-24" vertex="1">
          <mxGeometry x="13.5" y="6" width="171.5" height="30" as="geometry" />
        </mxCell>
        <mxCell id="GTZEqGsYLn5fTDWphI8U-27" value="&lt;font style=&quot;font-size: 18px;&quot;&gt;StarExec&lt;/font&gt;&lt;div style=&quot;font-size: 18px;&quot;&gt;&lt;font style=&quot;font-size: 18px;&quot;&gt;compute node&lt;/font&gt;&lt;/div&gt;&lt;div style=&quot;font-size: 18px;&quot;&gt;&lt;font style=&quot;font-size: 18px;&quot;&gt;container&lt;/font&gt;&lt;/div&gt;" style="text;strokeColor=none;align=center;fillColor=none;html=1;verticalAlign=middle;whiteSpace=wrap;rounded=0;" parent="GTZEqGsYLn5fTDWphI8U-24" vertex="1">
          <mxGeometry x="17.5" y="46" width="165" height="64" as="geometry" />
        </mxCell>
        <mxCell id="GTZEqGsYLn5fTDWphI8U-28" value="&lt;ul style=&quot;font-size: 18px;&quot;&gt;&lt;li&gt;&lt;font style=&quot;font-size: 18px;&quot;&gt;Control&lt;/font&gt;&lt;/li&gt;&lt;li&gt;BenchExec&lt;/li&gt;&lt;li&gt;&lt;font style=&quot;font-size: 18px;&quot;&gt;ATP system&lt;/font&gt;&lt;/li&gt;&lt;li&gt;&lt;font style=&quot;font-size: 18px;&quot;&gt;Problem&lt;/font&gt;&lt;/li&gt;&lt;/ul&gt;" style="text;strokeColor=none;align=left;fillColor=none;html=1;verticalAlign=middle;whiteSpace=wrap;rounded=0;" parent="GTZEqGsYLn5fTDWphI8U-24" vertex="1">
          <mxGeometry y="120" width="165" height="90" as="geometry" />
        </mxCell>
        <mxCell id="GTZEqGsYLn5fTDWphI8U-29" value="" style="endArrow=none;html=1;rounded=0;strokeWidth=2;" parent="GTZEqGsYLn5fTDWphI8U-24" edge="1">
          <mxGeometry width="50" height="50" relative="1" as="geometry">
            <mxPoint x="10" y="39" as="sourcePoint" />
            <mxPoint x="190" y="39" as="targetPoint" />
          </mxGeometry>
        </mxCell>
        <mxCell id="GTZEqGsYLn5fTDWphI8U-30" style="edgeStyle=orthogonalEdgeStyle;rounded=0;orthogonalLoop=1;jettySize=auto;html=1;exitX=0.5;exitY=1;exitDx=0;exitDy=0;" parent="GTZEqGsYLn5fTDWphI8U-24" source="GTZEqGsYLn5fTDWphI8U-25" target="GTZEqGsYLn5fTDWphI8U-25" edge="1">
          <mxGeometry relative="1" as="geometry" />
        </mxCell>
        <mxCell id="GTZEqGsYLn5fTDWphI8U-41" value="" style="endArrow=none;html=1;rounded=0;strokeWidth=2;" parent="GTZEqGsYLn5fTDWphI8U-24" edge="1">
          <mxGeometry width="50" height="50" relative="1" as="geometry">
            <mxPoint x="150" y="156" as="sourcePoint" />
            <mxPoint x="170" y="156" as="targetPoint" />
          </mxGeometry>
        </mxCell>
        <mxCell id="GTZEqGsYLn5fTDWphI8U-31" value="" style="endArrow=none;dashed=1;html=1;rounded=0;strokeWidth=6;entryX=0;entryY=0;entryDx=0;entryDy=0;" parent="1" edge="1">
          <mxGeometry width="50" height="50" relative="1" as="geometry">
            <mxPoint x="654" y="360" as="sourcePoint" />
            <mxPoint x="754" y="360" as="targetPoint" />
          </mxGeometry>
        </mxCell>
        <mxCell id="GTZEqGsYLn5fTDWphI8U-32" value="&lt;span style=&quot;font-size: 18px;&quot;&gt;As many&lt;/span&gt;&lt;div&gt;&lt;span style=&quot;font-size: 18px;&quot;&gt;as you&lt;/span&gt;&lt;/div&gt;&lt;div&gt;&lt;span style=&quot;font-size: 18px;&quot;&gt;want&lt;/span&gt;&lt;/div&gt;" style="text;strokeColor=none;align=center;fillColor=none;html=1;verticalAlign=middle;whiteSpace=wrap;rounded=0;" parent="1" vertex="1">
          <mxGeometry x="650" y="280" width="100" height="64" as="geometry" />
        </mxCell>
        <mxCell id="GTZEqGsYLn5fTDWphI8U-38" value="" style="endArrow=none;html=1;rounded=0;strokeWidth=2;" parent="1" edge="1">
          <mxGeometry width="50" height="50" relative="1" as="geometry">
            <mxPoint x="920" y="601" as="sourcePoint" />
            <mxPoint x="920" y="377" as="targetPoint" />
          </mxGeometry>
        </mxCell>
        <mxCell id="GTZEqGsYLn5fTDWphI8U-40" value="" style="endArrow=none;html=1;rounded=0;strokeWidth=2;" parent="1" edge="1">
          <mxGeometry width="50" height="50" relative="1" as="geometry">
            <mxPoint x="900" y="377" as="sourcePoint" />
            <mxPoint x="920" y="377" as="targetPoint" />
          </mxGeometry>
        </mxCell>
        <mxCell id="GTZEqGsYLn5fTDWphI8U-42" value="" style="endArrow=none;html=1;rounded=0;strokeWidth=2;" parent="1" edge="1">
          <mxGeometry width="50" height="50" relative="1" as="geometry">
            <mxPoint x="900" y="419" as="sourcePoint" />
            <mxPoint x="920" y="419" as="targetPoint" />
          </mxGeometry>
        </mxCell>
        <mxCell id="GTZEqGsYLn5fTDWphI8U-44" value="" style="endArrow=classic;html=1;rounded=0;strokeWidth=2;entryX=1.014;entryY=0.5;entryDx=0;entryDy=0;entryPerimeter=0;" parent="1" target="GTZEqGsYLn5fTDWphI8U-33" edge="1">
          <mxGeometry width="50" height="50" relative="1" as="geometry">
            <mxPoint x="920" y="510" as="sourcePoint" />
            <mxPoint x="550" y="510" as="targetPoint" />
          </mxGeometry>
        </mxCell>
        <mxCell id="GTZEqGsYLn5fTDWphI8U-45" value="" style="endArrow=classic;html=1;rounded=0;strokeWidth=2;entryX=0.5;entryY=0;entryDx=0;entryDy=0;" parent="1" target="i8nAKIxyEa4UH_frVO4T-21" edge="1">
          <mxGeometry width="50" height="50" relative="1" as="geometry">
            <mxPoint x="250" y="160" as="sourcePoint" />
            <mxPoint x="450" y="460" as="targetPoint" />
          </mxGeometry>
        </mxCell>
        <mxCell id="GTZEqGsYLn5fTDWphI8U-46" value="" style="endArrow=classic;html=1;rounded=0;strokeWidth=2;" parent="1" edge="1">
          <mxGeometry width="50" height="50" relative="1" as="geometry">
            <mxPoint x="120" y="372" as="sourcePoint" />
            <mxPoint x="120" y="520" as="targetPoint" />
          </mxGeometry>
        </mxCell>
        <mxCell id="GTZEqGsYLn5fTDWphI8U-47" value="" style="endArrow=classic;html=1;rounded=0;strokeWidth=2;" parent="1" edge="1">
          <mxGeometry width="50" height="50" relative="1" as="geometry">
            <mxPoint x="120" y="373" as="sourcePoint" />
            <mxPoint x="180" y="373" as="targetPoint" />
          </mxGeometry>
        </mxCell>
        <mxCell id="GTZEqGsYLn5fTDWphI8U-48" value="" style="endArrow=none;html=1;rounded=0;strokeWidth=2;" parent="1" edge="1">
          <mxGeometry width="50" height="50" relative="1" as="geometry">
            <mxPoint x="140" y="510" as="sourcePoint" />
            <mxPoint x="140" y="415" as="targetPoint" />
          </mxGeometry>
        </mxCell>
        <mxCell id="GTZEqGsYLn5fTDWphI8U-51" value="&lt;div&gt;&lt;span style=&quot;font-size: 18px;&quot;&gt;Job&lt;/span&gt;&lt;/div&gt;&lt;div&gt;&lt;span style=&quot;font-size: 18px; background-color: initial;&quot;&gt;pair&lt;/span&gt;&lt;/div&gt;&lt;div&gt;&lt;span style=&quot;font-size: 18px; background-color: initial;&quot;&gt;info&lt;/span&gt;&lt;br&gt;&lt;/div&gt;" style="text;strokeColor=none;align=left;fillColor=none;html=1;verticalAlign=middle;whiteSpace=wrap;rounded=0;" parent="1" vertex="1">
          <mxGeometry x="354" y="184" width="40" height="64" as="geometry" />
        </mxCell>
        <mxCell id="GTZEqGsYLn5fTDWphI8U-52" value="" style="endArrow=none;html=1;rounded=0;strokeWidth=2;exitX=0.453;exitY=1.018;exitDx=0;exitDy=0;exitPerimeter=0;" parent="1" source="i8nAKIxyEa4UH_frVO4T-1" edge="1">
          <mxGeometry width="50" height="50" relative="1" as="geometry">
            <mxPoint x="390" y="30" as="sourcePoint" />
            <mxPoint x="390" y="511" as="targetPoint" />
          </mxGeometry>
        </mxCell>
        <mxCell id="GTZEqGsYLn5fTDWphI8U-53" value="" style="endArrow=none;html=1;rounded=0;strokeWidth=2;" parent="1" edge="1">
          <mxGeometry width="50" height="50" relative="1" as="geometry">
            <mxPoint x="440" y="374" as="sourcePoint" />
            <mxPoint x="440" y="514" as="targetPoint" />
          </mxGeometry>
        </mxCell>
        <mxCell id="GTZEqGsYLn5fTDWphI8U-88" value="" style="endArrow=none;html=1;rounded=0;strokeWidth=2;" parent="1" edge="1">
          <mxGeometry width="50" height="50" relative="1" as="geometry">
            <mxPoint x="620" y="600" as="sourcePoint" />
            <mxPoint x="620" y="376" as="targetPoint" />
          </mxGeometry>
        </mxCell>
        <mxCell id="GTZEqGsYLn5fTDWphI8U-90" value="" style="endArrow=none;html=1;rounded=0;strokeWidth=2;" parent="1" edge="1">
          <mxGeometry width="50" height="50" relative="1" as="geometry">
            <mxPoint x="599" y="398" as="sourcePoint" />
            <mxPoint x="619" y="398" as="targetPoint" />
          </mxGeometry>
        </mxCell>
        <mxCell id="GTZEqGsYLn5fTDWphI8U-91" value="" style="endArrow=none;html=1;rounded=0;strokeWidth=2;" parent="1" edge="1">
          <mxGeometry width="50" height="50" relative="1" as="geometry">
            <mxPoint x="599" y="419" as="sourcePoint" />
            <mxPoint x="619" y="419" as="targetPoint" />
          </mxGeometry>
        </mxCell>
        <mxCell id="GTZEqGsYLn5fTDWphI8U-92" value="" style="endArrow=none;html=1;rounded=0;strokeWidth=2;entryX=0.586;entryY=-0.021;entryDx=0;entryDy=0;entryPerimeter=0;" parent="1" edge="1">
          <mxGeometry width="50" height="50" relative="1" as="geometry">
            <mxPoint x="541" y="480" as="sourcePoint" />
            <mxPoint x="540.8600000000001" y="505.78999999999996" as="targetPoint" />
          </mxGeometry>
        </mxCell>
        <mxCell id="GTZEqGsYLn5fTDWphI8U-93" value="" style="endArrow=none;html=1;rounded=0;strokeWidth=2;exitX=0.98;exitY=0.47;exitDx=0;exitDy=0;exitPerimeter=0;" parent="1" edge="1">
          <mxGeometry width="50" height="50" relative="1" as="geometry">
            <mxPoint x="449.6" y="480.4" as="sourcePoint" />
            <mxPoint x="540" y="481" as="targetPoint" />
          </mxGeometry>
        </mxCell>
        <mxCell id="4HpDZAh3RYJfs15AUqm1-1" value="" style="verticalLabelPosition=bottom;verticalAlign=top;html=1;shape=mxgraph.basic.arc;startAngle=0.7468173254495136;endAngle=0.2543004380527166;strokeWidth=2;" parent="1" vertex="1">
          <mxGeometry x="430" y="470" width="20" height="20" as="geometry" />
        </mxCell>
        <mxCell id="4HpDZAh3RYJfs15AUqm1-6" value="" style="endArrow=none;html=1;rounded=0;strokeWidth=2;" parent="1" edge="1">
          <mxGeometry width="50" height="50" relative="1" as="geometry">
            <mxPoint x="290" y="600" as="sourcePoint" />
            <mxPoint x="550" y="600" as="targetPoint" />
          </mxGeometry>
        </mxCell>
        <mxCell id="4HpDZAh3RYJfs15AUqm1-7" value="" style="endArrow=classic;html=1;rounded=0;strokeWidth=2;" parent="1" edge="1">
          <mxGeometry width="50" height="50" relative="1" as="geometry">
            <mxPoint x="290" y="600" as="sourcePoint" />
            <mxPoint x="290" y="520" as="targetPoint" />
          </mxGeometry>
        </mxCell>
        <mxCell id="4HpDZAh3RYJfs15AUqm1-8" value="&lt;font style=&quot;font-size: 18px;&quot;&gt;Results&lt;/font&gt;" style="text;strokeColor=none;align=center;fillColor=none;html=1;verticalAlign=middle;whiteSpace=wrap;rounded=0;" parent="1" vertex="1">
          <mxGeometry x="670" y="480" width="171.5" height="30" as="geometry" />
        </mxCell>
        <mxCell id="4HpDZAh3RYJfs15AUqm1-9" value="&lt;font style=&quot;font-size: 18px;&quot;&gt;Results&lt;/font&gt;" style="text;strokeColor=none;align=center;fillColor=none;html=1;verticalAlign=middle;whiteSpace=wrap;rounded=0;" parent="1" vertex="1">
          <mxGeometry x="670" y="570" width="171.5" height="30" as="geometry" />
        </mxCell>
        <mxCell id="4HpDZAh3RYJfs15AUqm1-10" value="" style="endArrow=classic;html=1;rounded=0;strokeWidth=2;" parent="1" edge="1">
          <mxGeometry width="50" height="50" relative="1" as="geometry">
            <mxPoint x="920" y="600" as="sourcePoint" />
            <mxPoint x="540" y="600" as="targetPoint" />
          </mxGeometry>
        </mxCell>
        <mxCell id="4HpDZAh3RYJfs15AUqm1-11" value="&lt;div&gt;&lt;span style=&quot;font-size: 18px;&quot;&gt;Job&lt;/span&gt;&lt;/div&gt;&lt;div&gt;&lt;span style=&quot;font-size: 18px; background-color: initial;&quot;&gt;pair&lt;/span&gt;&lt;/div&gt;&lt;div&gt;&lt;span style=&quot;font-size: 18px; background-color: initial;&quot;&gt;data&lt;/span&gt;&lt;br&gt;&lt;/div&gt;" style="text;strokeColor=none;align=left;fillColor=none;html=1;verticalAlign=middle;whiteSpace=wrap;rounded=0;" parent="1" vertex="1">
          <mxGeometry x="350" y="425" width="40" height="64" as="geometry" />
        </mxCell>
        <mxCell id="4HpDZAh3RYJfs15AUqm1-12" value="" style="endArrow=classic;html=1;rounded=0;strokeWidth=2;exitX=0.909;exitY=0.667;exitDx=0;exitDy=0;exitPerimeter=0;" parent="1" source="GTZEqGsYLn5fTDWphI8U-1" edge="1">
          <mxGeometry width="50" height="50" relative="1" as="geometry">
            <mxPoint x="530" y="490" as="sourcePoint" />
            <mxPoint x="390" y="420" as="targetPoint" />
          </mxGeometry>
        </mxCell>
        <mxCell id="4HpDZAh3RYJfs15AUqm1-13" value="" style="group" parent="1" vertex="1" connectable="0">
          <mxGeometry x="280" y="80" width="240" height="100" as="geometry" />
        </mxCell>
        <mxCell id="i8nAKIxyEa4UH_frVO4T-1" value="" style="rounded=1;whiteSpace=wrap;html=1;strokeWidth=3;fillColor=none;" parent="4HpDZAh3RYJfs15AUqm1-13" vertex="1">
          <mxGeometry width="240" height="100" as="geometry" />
        </mxCell>
        <mxCell id="i8nAKIxyEa4UH_frVO4T-2" value="&lt;p style=&quot;margin: 0px; font-variant-numeric: normal; font-variant-east-asian: normal; font-variant-alternates: normal; font-kerning: auto; font-optical-sizing: auto; font-feature-settings: normal; font-variation-settings: normal; font-variant-position: normal; font-stretch: normal; font-size: 36px; line-height: normal; text-align: start;&quot; class=&quot;p1&quot;&gt;Kubernetes&lt;/p&gt;&lt;p style=&quot;margin: 0px; font-variant-numeric: normal; font-variant-east-asian: normal; font-variant-alternates: normal; font-kerning: auto; font-optical-sizing: auto; font-feature-settings: normal; font-variation-settings: normal; font-variant-position: normal; font-stretch: normal; font-size: 36px; line-height: normal;&quot; class=&quot;p1&quot;&gt;host&lt;/p&gt;" style="text;strokeColor=none;align=center;fillColor=none;html=1;verticalAlign=middle;whiteSpace=wrap;rounded=0;" parent="4HpDZAh3RYJfs15AUqm1-13" vertex="1">
          <mxGeometry x="5" y="5" width="230" height="90" as="geometry" />
        </mxCell>
        <mxCell id="4HpDZAh3RYJfs15AUqm1-14" value="&lt;font style=&quot;font-size: 18px;&quot;&gt;Kubernetes&lt;/font&gt;&lt;div&gt;&lt;font style=&quot;font-size: 18px;&quot;&gt;service&lt;/font&gt;&lt;/div&gt;" style="text;strokeColor=none;align=right;fillColor=none;html=1;verticalAlign=middle;whiteSpace=wrap;rounded=0;" parent="1" vertex="1">
          <mxGeometry x="145" y="160" width="100.75" height="50" as="geometry" />
        </mxCell>
        <mxCell id="4HpDZAh3RYJfs15AUqm1-15" value="" style="endArrow=none;html=1;rounded=0;strokeWidth=2;" parent="1" edge="1">
          <mxGeometry width="50" height="50" relative="1" as="geometry">
            <mxPoint x="250" y="160" as="sourcePoint" />
            <mxPoint x="280" y="160" as="targetPoint" />
          </mxGeometry>
        </mxCell>
        <mxCell id="4HpDZAh3RYJfs15AUqm1-16" value="" style="endArrow=classic;html=1;rounded=0;strokeWidth=2;entryX=0.909;entryY=0.222;entryDx=0;entryDy=0;entryPerimeter=0;" parent="1" edge="1">
          <mxGeometry width="50" height="50" relative="1" as="geometry">
            <mxPoint x="380" y="375" as="sourcePoint" />
            <mxPoint x="299.9849999999999" y="374.9799999999998" as="targetPoint" />
          </mxGeometry>
        </mxCell>
        <mxCell id="4HpDZAh3RYJfs15AUqm1-17" value="" style="group" parent="1" vertex="1" connectable="0">
          <mxGeometry x="140" y="240" width="200" height="220" as="geometry" />
        </mxCell>
        <mxCell id="GTZEqGsYLn5fTDWphI8U-49" value="" style="endArrow=classic;html=1;rounded=0;strokeWidth=2;" parent="4HpDZAh3RYJfs15AUqm1-17" edge="1">
          <mxGeometry width="50" height="50" relative="1" as="geometry">
            <mxPoint y="176" as="sourcePoint" />
            <mxPoint x="40" y="176" as="targetPoint" />
          </mxGeometry>
        </mxCell>
        <mxCell id="i8nAKIxyEa4UH_frVO4T-21" value="" style="rounded=1;whiteSpace=wrap;html=1;strokeWidth=3;fillColor=none;" parent="4HpDZAh3RYJfs15AUqm1-17" vertex="1">
          <mxGeometry x="20" width="180" height="220" as="geometry" />
        </mxCell>
        <mxCell id="i8nAKIxyEa4UH_frVO4T-17" value="&lt;font style=&quot;font-size: 24px;&quot;&gt;Head Node&lt;/font&gt;" style="text;strokeColor=none;align=center;fillColor=none;html=1;verticalAlign=middle;whiteSpace=wrap;rounded=0;" parent="4HpDZAh3RYJfs15AUqm1-17" vertex="1">
          <mxGeometry x="37.5" y="6" width="145" height="30" as="geometry" />
        </mxCell>
        <mxCell id="i8nAKIxyEa4UH_frVO4T-23" value="&lt;font style=&quot;font-size: 18px;&quot;&gt;StarExec&lt;/font&gt;&lt;div style=&quot;font-size: 18px;&quot;&gt;&lt;font style=&quot;font-size: 18px;&quot;&gt;head node&lt;/font&gt;&lt;/div&gt;&lt;div style=&quot;font-size: 18px;&quot;&gt;&lt;font style=&quot;font-size: 18px;&quot;&gt;container&lt;/font&gt;&lt;/div&gt;" style="text;strokeColor=none;align=center;fillColor=none;html=1;verticalAlign=middle;whiteSpace=wrap;rounded=0;" parent="4HpDZAh3RYJfs15AUqm1-17" vertex="1">
          <mxGeometry x="27.5" y="46" width="165" height="64" as="geometry" />
        </mxCell>
        <mxCell id="GTZEqGsYLn5fTDWphI8U-1" value="&lt;ul style=&quot;font-size: 18px;&quot;&gt;&lt;li&gt;&lt;font style=&quot;font-size: 18px;&quot;&gt;StarExec&lt;/font&gt;&lt;/li&gt;&lt;li&gt;&lt;font style=&quot;font-size: 18px;&quot;&gt;Local backend&lt;/font&gt;&lt;/li&gt;&lt;li&gt;&lt;font style=&quot;font-size: 18px;&quot;&gt;Kubernetes backend&lt;/font&gt;&lt;/li&gt;&lt;/ul&gt;" style="text;strokeColor=none;align=left;fillColor=none;html=1;verticalAlign=middle;whiteSpace=wrap;rounded=0;" parent="4HpDZAh3RYJfs15AUqm1-17" vertex="1">
          <mxGeometry x="10" y="120" width="165" height="90" as="geometry" />
        </mxCell>
        <mxCell id="GTZEqGsYLn5fTDWphI8U-2" value="" style="endArrow=none;html=1;rounded=0;strokeWidth=2;" parent="4HpDZAh3RYJfs15AUqm1-17" edge="1">
          <mxGeometry width="50" height="50" relative="1" as="geometry">
            <mxPoint x="20" y="39" as="sourcePoint" />
            <mxPoint x="200" y="39" as="targetPoint" />
          </mxGeometry>
        </mxCell>
        <mxCell id="GTZEqGsYLn5fTDWphI8U-3" style="edgeStyle=orthogonalEdgeStyle;rounded=0;orthogonalLoop=1;jettySize=auto;html=1;exitX=0.5;exitY=1;exitDx=0;exitDy=0;" parent="4HpDZAh3RYJfs15AUqm1-17" source="i8nAKIxyEa4UH_frVO4T-21" target="i8nAKIxyEa4UH_frVO4T-21" edge="1">
          <mxGeometry relative="1" as="geometry" />
        </mxCell>
        <mxCell id="4HpDZAh3RYJfs15AUqm1-18" value="" style="endArrow=none;html=1;rounded=0;strokeWidth=2;" parent="1" edge="1">
          <mxGeometry width="50" height="50" relative="1" as="geometry">
            <mxPoint x="410" y="481" as="sourcePoint" />
            <mxPoint x="410" y="375" as="targetPoint" />
          </mxGeometry>
        </mxCell>
        <mxCell id="4HpDZAh3RYJfs15AUqm1-19" value="" style="endArrow=none;html=1;rounded=0;strokeWidth=2;entryX=0.017;entryY=0.496;entryDx=0;entryDy=0;entryPerimeter=0;" parent="1" edge="1">
          <mxGeometry width="50" height="50" relative="1" as="geometry">
            <mxPoint x="410" y="480" as="sourcePoint" />
            <mxPoint x="430.34000000000003" y="479.9200000000001" as="targetPoint" />
          </mxGeometry>
        </mxCell>
        <mxCell id="4HpDZAh3RYJfs15AUqm1-20" value="" style="verticalLabelPosition=bottom;verticalAlign=top;html=1;shape=mxgraph.basic.arc;startAngle=0.7468173254495136;endAngle=0.2543004380527166;strokeWidth=2;" parent="1" vertex="1">
          <mxGeometry x="379" y="366" width="20" height="20" as="geometry" />
        </mxCell>
        <mxCell id="4HpDZAh3RYJfs15AUqm1-21" value="" style="endArrow=none;html=1;rounded=0;strokeWidth=2;exitX=1.05;exitY=0.7;exitDx=0;exitDy=0;exitPerimeter=0;" parent="1" edge="1">
          <mxGeometry width="50" height="50" relative="1" as="geometry">
            <mxPoint x="398.9999999999999" y="376.0000000000001" as="sourcePoint" />
            <mxPoint x="409" y="376" as="targetPoint" />
          </mxGeometry>
        </mxCell>
        <mxCell id="4HpDZAh3RYJfs15AUqm1-22" value="" style="endArrow=none;html=1;rounded=0;strokeWidth=2;entryX=1.024;entryY=0.817;entryDx=0;entryDy=0;entryPerimeter=0;" parent="1" target="i8nAKIxyEa4UH_frVO4T-2" edge="1">
          <mxGeometry width="50" height="50" relative="1" as="geometry">
            <mxPoint x="850" y="159" as="sourcePoint" />
            <mxPoint x="488" y="385" as="targetPoint" />
          </mxGeometry>
        </mxCell>
        <mxCell id="4HpDZAh3RYJfs15AUqm1-23" value="" style="endArrow=classic;html=1;rounded=0;strokeWidth=2;entryX=0.5;entryY=0;entryDx=0;entryDy=0;" parent="1" edge="1">
          <mxGeometry width="50" height="50" relative="1" as="geometry">
            <mxPoint x="550" y="160" as="sourcePoint" />
            <mxPoint x="550" y="242" as="targetPoint" />
          </mxGeometry>
        </mxCell>
        <mxCell id="4HpDZAh3RYJfs15AUqm1-24" value="" style="endArrow=classic;html=1;rounded=0;strokeWidth=2;entryX=0.5;entryY=0;entryDx=0;entryDy=0;" parent="1" edge="1">
          <mxGeometry width="50" height="50" relative="1" as="geometry">
            <mxPoint x="850" y="160" as="sourcePoint" />
            <mxPoint x="850" y="242" as="targetPoint" />
          </mxGeometry>
        </mxCell>
        <mxCell id="4HpDZAh3RYJfs15AUqm1-25" value="&lt;font style=&quot;font-size: 18px;&quot;&gt;Kubernetes&amp;nbsp;&lt;/font&gt;&lt;span style=&quot;font-size: 18px; background-color: initial;&quot;&gt;jobs&lt;/span&gt;" style="text;strokeColor=none;align=right;fillColor=none;html=1;verticalAlign=middle;whiteSpace=wrap;rounded=0;" parent="1" vertex="1">
          <mxGeometry x="570" y="130" width="90" height="30" as="geometry" />
        </mxCell>
        <mxCell id="4HpDZAh3RYJfs15AUqm1-26" value="" style="group" parent="1" vertex="1" connectable="0">
          <mxGeometry x="80" y="1050" width="240" height="90" as="geometry" />
        </mxCell>
        <mxCell id="4HpDZAh3RYJfs15AUqm1-27" value="" style="rounded=1;whiteSpace=wrap;html=1;strokeWidth=3;container=0;" parent="4HpDZAh3RYJfs15AUqm1-26" vertex="1">
          <mxGeometry y="10" width="240" height="70" as="geometry" />
        </mxCell>
        <mxCell id="4HpDZAh3RYJfs15AUqm1-28" value="&lt;p style=&quot;margin: 0px; font-variant-numeric: normal; font-variant-east-asian: normal; font-variant-alternates: normal; font-kerning: auto; font-optical-sizing: auto; font-feature-settings: normal; font-variation-settings: normal; font-variant-position: normal; font-stretch: normal; font-size: 36px; line-height: normal; text-align: start;&quot; class=&quot;p1&quot;&gt;MariaDB&lt;/p&gt;" style="text;strokeColor=none;align=center;fillColor=none;html=1;verticalAlign=middle;whiteSpace=wrap;rounded=0;container=0;" parent="4HpDZAh3RYJfs15AUqm1-26" vertex="1">
          <mxGeometry x="5" width="230" height="90" as="geometry" />
        </mxCell>
        <mxCell id="4HpDZAh3RYJfs15AUqm1-29" value="" style="group;fillColor=none;" parent="1" vertex="1" connectable="0">
          <mxGeometry x="360" y="1050" width="240" height="90" as="geometry" />
        </mxCell>
        <mxCell id="4HpDZAh3RYJfs15AUqm1-30" value="" style="rounded=1;whiteSpace=wrap;html=1;strokeWidth=3;container=0;fillColor=none;" parent="4HpDZAh3RYJfs15AUqm1-29" vertex="1">
          <mxGeometry y="10" width="240" height="70" as="geometry" />
        </mxCell>
        <mxCell id="4HpDZAh3RYJfs15AUqm1-31" value="&lt;p style=&quot;margin: 0px; font-variant-numeric: normal; font-variant-east-asian: normal; font-variant-alternates: normal; font-kerning: auto; font-optical-sizing: auto; font-feature-settings: normal; font-variation-settings: normal; font-variant-position: normal; font-stretch: normal; font-size: 36px; line-height: normal; text-align: start;&quot; class=&quot;p1&quot;&gt;File system&lt;/p&gt;" style="text;strokeColor=none;align=center;fillColor=none;html=1;verticalAlign=middle;whiteSpace=wrap;rounded=0;container=0;" parent="4HpDZAh3RYJfs15AUqm1-29" vertex="1">
          <mxGeometry x="5" width="230" height="90" as="geometry" />
        </mxCell>
        <mxCell id="4HpDZAh3RYJfs15AUqm1-32" value="" style="ellipse;whiteSpace=wrap;html=1;aspect=fixed;fillColor=#000000;" parent="4HpDZAh3RYJfs15AUqm1-29" vertex="1">
          <mxGeometry x="175" y="15" width="10" height="10" as="geometry" />
        </mxCell>
        <mxCell id="4HpDZAh3RYJfs15AUqm1-33" value="" style="ellipse;whiteSpace=wrap;html=1;aspect=fixed;fillColor=#000000;" parent="4HpDZAh3RYJfs15AUqm1-29" vertex="1">
          <mxGeometry x="75" y="15" width="10" height="10" as="geometry" />
        </mxCell>
        <mxCell id="4HpDZAh3RYJfs15AUqm1-34" value="" style="endArrow=classic;html=1;rounded=0;strokeWidth=2;entryX=0;entryY=0.5;entryDx=0;entryDy=0;" parent="4HpDZAh3RYJfs15AUqm1-29" target="4HpDZAh3RYJfs15AUqm1-33" edge="1">
          <mxGeometry width="50" height="50" relative="1" as="geometry">
            <mxPoint x="30" y="20" as="sourcePoint" />
            <mxPoint x="20" y="-160" as="targetPoint" />
          </mxGeometry>
        </mxCell>
        <mxCell id="4HpDZAh3RYJfs15AUqm1-35" value="" style="group;fillColor=none;" parent="1" vertex="1" connectable="0">
          <mxGeometry x="450" y="802" width="190" height="216" as="geometry" />
        </mxCell>
        <mxCell id="4HpDZAh3RYJfs15AUqm1-36" value="" style="rounded=1;whiteSpace=wrap;html=1;strokeWidth=3;" parent="4HpDZAh3RYJfs15AUqm1-35" vertex="1">
          <mxGeometry x="10" width="180" height="216" as="geometry" />
        </mxCell>
        <mxCell id="4HpDZAh3RYJfs15AUqm1-37" value="&lt;font style=&quot;font-size: 24px;&quot;&gt;Compute Node&lt;/font&gt;" style="text;strokeColor=none;align=center;fillColor=none;html=1;verticalAlign=middle;whiteSpace=wrap;rounded=0;" parent="4HpDZAh3RYJfs15AUqm1-35" vertex="1">
          <mxGeometry x="13.5" y="6" width="171.5" height="30" as="geometry" />
        </mxCell>
        <mxCell id="4HpDZAh3RYJfs15AUqm1-38" value="&lt;font style=&quot;font-size: 18px;&quot;&gt;StarExec&lt;/font&gt;&lt;div style=&quot;font-size: 18px;&quot;&gt;&lt;font style=&quot;font-size: 18px;&quot;&gt;compute node&lt;/font&gt;&lt;/div&gt;" style="text;strokeColor=none;align=center;fillColor=none;html=1;verticalAlign=middle;whiteSpace=wrap;rounded=0;" parent="4HpDZAh3RYJfs15AUqm1-35" vertex="1">
          <mxGeometry x="17.5" y="46" width="165" height="44" as="geometry" />
        </mxCell>
        <mxCell id="4HpDZAh3RYJfs15AUqm1-39" value="&lt;ul style=&quot;font-size: 18px;&quot;&gt;&lt;li&gt;&lt;font style=&quot;font-size: 18px;&quot;&gt;SGE server&lt;/font&gt;&lt;/li&gt;&lt;li&gt;&lt;font style=&quot;font-size: 18px;&quot;&gt;Control&lt;/font&gt;&lt;/li&gt;&lt;li&gt;runsolver&lt;/li&gt;&lt;li&gt;&lt;font style=&quot;font-size: 18px;&quot;&gt;ATP system&lt;/font&gt;&lt;/li&gt;&lt;li&gt;&lt;font style=&quot;font-size: 18px;&quot;&gt;Problem&lt;/font&gt;&lt;/li&gt;&lt;/ul&gt;" style="text;strokeColor=none;align=left;fillColor=none;html=1;verticalAlign=middle;whiteSpace=wrap;rounded=0;" parent="4HpDZAh3RYJfs15AUqm1-35" vertex="1">
          <mxGeometry x="1" y="109" width="165" height="90" as="geometry" />
        </mxCell>
        <mxCell id="4HpDZAh3RYJfs15AUqm1-40" value="" style="endArrow=none;html=1;rounded=0;strokeWidth=2;" parent="4HpDZAh3RYJfs15AUqm1-35" edge="1">
          <mxGeometry width="50" height="50" relative="1" as="geometry">
            <mxPoint x="10" y="39" as="sourcePoint" />
            <mxPoint x="190" y="39" as="targetPoint" />
          </mxGeometry>
        </mxCell>
        <mxCell id="4HpDZAh3RYJfs15AUqm1-41" style="edgeStyle=orthogonalEdgeStyle;rounded=0;orthogonalLoop=1;jettySize=auto;html=1;exitX=0.5;exitY=1;exitDx=0;exitDy=0;" parent="4HpDZAh3RYJfs15AUqm1-35" source="4HpDZAh3RYJfs15AUqm1-36" target="4HpDZAh3RYJfs15AUqm1-36" edge="1">
          <mxGeometry relative="1" as="geometry" />
        </mxCell>
        <mxCell id="4HpDZAh3RYJfs15AUqm1-42" value="" style="endArrow=none;html=1;rounded=0;strokeWidth=2;" parent="4HpDZAh3RYJfs15AUqm1-35" edge="1">
          <mxGeometry width="50" height="50" relative="1" as="geometry">
            <mxPoint x="149" y="135" as="sourcePoint" />
            <mxPoint x="169" y="135" as="targetPoint" />
          </mxGeometry>
        </mxCell>
        <mxCell id="4HpDZAh3RYJfs15AUqm1-43" value="" style="endArrow=classic;html=1;rounded=0;strokeWidth=2;entryX=0.182;entryY=0.089;entryDx=0;entryDy=0;entryPerimeter=0;" parent="4HpDZAh3RYJfs15AUqm1-35" edge="1">
          <mxGeometry width="50" height="50" relative="1" as="geometry">
            <mxPoint x="-10" y="133" as="sourcePoint" />
            <mxPoint x="30.029999999999973" y="133.01" as="targetPoint" />
          </mxGeometry>
        </mxCell>
        <mxCell id="4HpDZAh3RYJfs15AUqm1-44" value="" style="group" parent="1" vertex="1" connectable="0">
          <mxGeometry x="750" y="802" width="190" height="216" as="geometry" />
        </mxCell>
        <mxCell id="4HpDZAh3RYJfs15AUqm1-45" value="" style="rounded=1;whiteSpace=wrap;html=1;strokeWidth=3;fillColor=default;" parent="4HpDZAh3RYJfs15AUqm1-44" vertex="1">
          <mxGeometry x="10" width="180" height="216" as="geometry" />
        </mxCell>
        <mxCell id="4HpDZAh3RYJfs15AUqm1-46" value="&lt;font style=&quot;font-size: 24px;&quot;&gt;Compute Node&lt;/font&gt;" style="text;strokeColor=none;align=center;fillColor=none;html=1;verticalAlign=middle;whiteSpace=wrap;rounded=0;" parent="4HpDZAh3RYJfs15AUqm1-44" vertex="1">
          <mxGeometry x="13.5" y="6" width="171.5" height="30" as="geometry" />
        </mxCell>
        <mxCell id="4HpDZAh3RYJfs15AUqm1-47" value="&lt;font style=&quot;font-size: 18px;&quot;&gt;StarExec&lt;/font&gt;&lt;div style=&quot;font-size: 18px;&quot;&gt;&lt;font style=&quot;font-size: 18px;&quot;&gt;compute node&lt;/font&gt;&lt;/div&gt;" style="text;strokeColor=none;align=center;fillColor=none;html=1;verticalAlign=middle;whiteSpace=wrap;rounded=0;" parent="4HpDZAh3RYJfs15AUqm1-44" vertex="1">
          <mxGeometry x="17.5" y="46" width="165" height="44" as="geometry" />
        </mxCell>
        <mxCell id="4HpDZAh3RYJfs15AUqm1-49" value="" style="endArrow=none;html=1;rounded=0;strokeWidth=2;" parent="4HpDZAh3RYJfs15AUqm1-44" edge="1">
          <mxGeometry width="50" height="50" relative="1" as="geometry">
            <mxPoint x="10" y="39" as="sourcePoint" />
            <mxPoint x="190" y="39" as="targetPoint" />
          </mxGeometry>
        </mxCell>
        <mxCell id="4HpDZAh3RYJfs15AUqm1-50" style="edgeStyle=orthogonalEdgeStyle;rounded=0;orthogonalLoop=1;jettySize=auto;html=1;exitX=0.5;exitY=1;exitDx=0;exitDy=0;" parent="4HpDZAh3RYJfs15AUqm1-44" source="4HpDZAh3RYJfs15AUqm1-45" target="4HpDZAh3RYJfs15AUqm1-45" edge="1">
          <mxGeometry relative="1" as="geometry" />
        </mxCell>
        <mxCell id="4HpDZAh3RYJfs15AUqm1-51" value="" style="endArrow=none;html=1;rounded=0;strokeWidth=2;" parent="4HpDZAh3RYJfs15AUqm1-44" edge="1">
          <mxGeometry width="50" height="50" relative="1" as="geometry">
            <mxPoint x="150" y="156" as="sourcePoint" />
            <mxPoint x="170" y="156" as="targetPoint" />
          </mxGeometry>
        </mxCell>
        <mxCell id="4HpDZAh3RYJfs15AUqm1-100" value="&lt;ul style=&quot;font-size: 18px;&quot;&gt;&lt;li&gt;&lt;font style=&quot;font-size: 18px;&quot;&gt;SGE server&lt;/font&gt;&lt;/li&gt;&lt;li&gt;&lt;font style=&quot;font-size: 18px;&quot;&gt;Control&lt;/font&gt;&lt;/li&gt;&lt;li&gt;runsolver&lt;/li&gt;&lt;li&gt;&lt;font style=&quot;font-size: 18px;&quot;&gt;ATP system&lt;/font&gt;&lt;/li&gt;&lt;li&gt;&lt;font style=&quot;font-size: 18px;&quot;&gt;Problem&lt;/font&gt;&lt;/li&gt;&lt;/ul&gt;" style="text;strokeColor=none;align=left;fillColor=none;html=1;verticalAlign=middle;whiteSpace=wrap;rounded=0;" parent="4HpDZAh3RYJfs15AUqm1-44" vertex="1">
          <mxGeometry x="3" y="109" width="165" height="90" as="geometry" />
        </mxCell>
        <mxCell id="4HpDZAh3RYJfs15AUqm1-52" value="" style="endArrow=none;dashed=1;html=1;rounded=0;strokeWidth=6;entryX=0;entryY=0;entryDx=0;entryDy=0;" parent="1" edge="1">
          <mxGeometry width="50" height="50" relative="1" as="geometry">
            <mxPoint x="654" y="920" as="sourcePoint" />
            <mxPoint x="754" y="920" as="targetPoint" />
          </mxGeometry>
        </mxCell>
        <mxCell id="4HpDZAh3RYJfs15AUqm1-53" value="&lt;span style=&quot;font-size: 18px;&quot;&gt;As many&lt;/span&gt;&lt;div&gt;&lt;span style=&quot;font-size: 18px;&quot;&gt;as you&lt;/span&gt;&lt;/div&gt;&lt;div&gt;&lt;span style=&quot;font-size: 18px;&quot;&gt;have&lt;/span&gt;&lt;/div&gt;" style="text;strokeColor=none;align=center;fillColor=none;html=1;verticalAlign=middle;whiteSpace=wrap;rounded=0;" parent="1" vertex="1">
          <mxGeometry x="650" y="840" width="100" height="64" as="geometry" />
        </mxCell>
        <mxCell id="4HpDZAh3RYJfs15AUqm1-54" value="" style="endArrow=none;html=1;rounded=0;strokeWidth=2;" parent="1" edge="1">
          <mxGeometry width="50" height="50" relative="1" as="geometry">
            <mxPoint x="920" y="1161" as="sourcePoint" />
            <mxPoint x="920" y="937" as="targetPoint" />
          </mxGeometry>
        </mxCell>
        <mxCell id="4HpDZAh3RYJfs15AUqm1-55" value="" style="endArrow=none;html=1;rounded=0;strokeWidth=2;" parent="1" edge="1">
          <mxGeometry width="50" height="50" relative="1" as="geometry">
            <mxPoint x="900" y="937" as="sourcePoint" />
            <mxPoint x="920" y="937" as="targetPoint" />
          </mxGeometry>
        </mxCell>
        <mxCell id="4HpDZAh3RYJfs15AUqm1-56" value="" style="endArrow=none;html=1;rounded=0;strokeWidth=2;" parent="1" edge="1">
          <mxGeometry width="50" height="50" relative="1" as="geometry">
            <mxPoint x="900" y="979" as="sourcePoint" />
            <mxPoint x="920" y="979" as="targetPoint" />
          </mxGeometry>
        </mxCell>
        <mxCell id="4HpDZAh3RYJfs15AUqm1-57" value="" style="endArrow=classic;html=1;rounded=0;strokeWidth=2;entryX=1.014;entryY=0.5;entryDx=0;entryDy=0;entryPerimeter=0;" parent="1" target="4HpDZAh3RYJfs15AUqm1-32" edge="1">
          <mxGeometry width="50" height="50" relative="1" as="geometry">
            <mxPoint x="920" y="1070" as="sourcePoint" />
            <mxPoint x="550" y="1070" as="targetPoint" />
          </mxGeometry>
        </mxCell>
        <mxCell id="4HpDZAh3RYJfs15AUqm1-59" value="" style="endArrow=classic;html=1;rounded=0;strokeWidth=2;" parent="1" edge="1">
          <mxGeometry width="50" height="50" relative="1" as="geometry">
            <mxPoint x="120" y="932" as="sourcePoint" />
            <mxPoint x="120" y="1080" as="targetPoint" />
          </mxGeometry>
        </mxCell>
        <mxCell id="4HpDZAh3RYJfs15AUqm1-60" value="" style="endArrow=classic;html=1;rounded=0;strokeWidth=2;" parent="1" edge="1">
          <mxGeometry width="50" height="50" relative="1" as="geometry">
            <mxPoint x="120" y="933" as="sourcePoint" />
            <mxPoint x="180" y="933" as="targetPoint" />
          </mxGeometry>
        </mxCell>
        <mxCell id="4HpDZAh3RYJfs15AUqm1-63" value="" style="endArrow=none;html=1;rounded=0;strokeWidth=2;" parent="1" edge="1">
          <mxGeometry width="50" height="50" relative="1" as="geometry">
            <mxPoint x="390" y="770" as="sourcePoint" />
            <mxPoint x="390" y="1071" as="targetPoint" />
          </mxGeometry>
        </mxCell>
        <mxCell id="4HpDZAh3RYJfs15AUqm1-64" value="" style="endArrow=none;html=1;rounded=0;strokeWidth=2;" parent="1" edge="1">
          <mxGeometry width="50" height="50" relative="1" as="geometry">
            <mxPoint x="440" y="934" as="sourcePoint" />
            <mxPoint x="440" y="1074" as="targetPoint" />
          </mxGeometry>
        </mxCell>
        <mxCell id="4HpDZAh3RYJfs15AUqm1-65" value="" style="endArrow=none;html=1;rounded=0;strokeWidth=2;" parent="1" edge="1">
          <mxGeometry width="50" height="50" relative="1" as="geometry">
            <mxPoint x="620" y="1160" as="sourcePoint" />
            <mxPoint x="620" y="936" as="targetPoint" />
          </mxGeometry>
        </mxCell>
        <mxCell id="4HpDZAh3RYJfs15AUqm1-66" value="" style="endArrow=none;html=1;rounded=0;strokeWidth=2;" parent="1" edge="1">
          <mxGeometry width="50" height="50" relative="1" as="geometry">
            <mxPoint x="599" y="958" as="sourcePoint" />
            <mxPoint x="619" y="958" as="targetPoint" />
          </mxGeometry>
        </mxCell>
        <mxCell id="4HpDZAh3RYJfs15AUqm1-67" value="" style="endArrow=none;html=1;rounded=0;strokeWidth=2;" parent="1" edge="1">
          <mxGeometry width="50" height="50" relative="1" as="geometry">
            <mxPoint x="599" y="979" as="sourcePoint" />
            <mxPoint x="619" y="979" as="targetPoint" />
          </mxGeometry>
        </mxCell>
        <mxCell id="4HpDZAh3RYJfs15AUqm1-68" value="" style="endArrow=none;html=1;rounded=0;strokeWidth=2;entryX=0.586;entryY=-0.021;entryDx=0;entryDy=0;entryPerimeter=0;" parent="1" edge="1">
          <mxGeometry width="50" height="50" relative="1" as="geometry">
            <mxPoint x="541" y="1040" as="sourcePoint" />
            <mxPoint x="540.8600000000001" y="1065.79" as="targetPoint" />
          </mxGeometry>
        </mxCell>
        <mxCell id="4HpDZAh3RYJfs15AUqm1-69" value="" style="endArrow=none;html=1;rounded=0;strokeWidth=2;exitX=0.98;exitY=0.47;exitDx=0;exitDy=0;exitPerimeter=0;" parent="1" edge="1">
          <mxGeometry width="50" height="50" relative="1" as="geometry">
            <mxPoint x="449.6" y="1040.4" as="sourcePoint" />
            <mxPoint x="540" y="1041" as="targetPoint" />
          </mxGeometry>
        </mxCell>
        <mxCell id="4HpDZAh3RYJfs15AUqm1-70" value="" style="verticalLabelPosition=bottom;verticalAlign=top;html=1;shape=mxgraph.basic.arc;startAngle=0.7468173254495136;endAngle=0.2543004380527166;strokeWidth=2;" parent="1" vertex="1">
          <mxGeometry x="430" y="1030" width="20" height="20" as="geometry" />
        </mxCell>
        <mxCell id="4HpDZAh3RYJfs15AUqm1-71" value="" style="endArrow=none;html=1;rounded=0;strokeWidth=2;" parent="1" edge="1">
          <mxGeometry width="50" height="50" relative="1" as="geometry">
            <mxPoint x="290" y="1160" as="sourcePoint" />
            <mxPoint x="550" y="1160" as="targetPoint" />
          </mxGeometry>
        </mxCell>
        <mxCell id="4HpDZAh3RYJfs15AUqm1-72" value="" style="endArrow=classic;html=1;rounded=0;strokeWidth=2;" parent="1" edge="1">
          <mxGeometry width="50" height="50" relative="1" as="geometry">
            <mxPoint x="290" y="1160" as="sourcePoint" />
            <mxPoint x="290" y="1080" as="targetPoint" />
          </mxGeometry>
        </mxCell>
        <mxCell id="4HpDZAh3RYJfs15AUqm1-73" value="&lt;font style=&quot;font-size: 18px;&quot;&gt;Results&lt;/font&gt;" style="text;strokeColor=none;align=center;fillColor=none;html=1;verticalAlign=middle;whiteSpace=wrap;rounded=0;" parent="1" vertex="1">
          <mxGeometry x="670" y="1040" width="171.5" height="30" as="geometry" />
        </mxCell>
        <mxCell id="4HpDZAh3RYJfs15AUqm1-74" value="&lt;font style=&quot;font-size: 18px;&quot;&gt;Results&lt;/font&gt;" style="text;strokeColor=none;align=center;fillColor=none;html=1;verticalAlign=middle;whiteSpace=wrap;rounded=0;" parent="1" vertex="1">
          <mxGeometry x="670" y="1130" width="171.5" height="30" as="geometry" />
        </mxCell>
        <mxCell id="4HpDZAh3RYJfs15AUqm1-75" value="" style="endArrow=classic;html=1;rounded=0;strokeWidth=2;" parent="1" edge="1">
          <mxGeometry width="50" height="50" relative="1" as="geometry">
            <mxPoint x="920" y="1160" as="sourcePoint" />
            <mxPoint x="540" y="1160" as="targetPoint" />
          </mxGeometry>
        </mxCell>
        <mxCell id="4HpDZAh3RYJfs15AUqm1-76" value="&lt;div&gt;&lt;span style=&quot;font-size: 18px;&quot;&gt;Job&lt;/span&gt;&lt;/div&gt;&lt;div&gt;&lt;span style=&quot;font-size: 18px; background-color: initial;&quot;&gt;pair&lt;/span&gt;&lt;/div&gt;&lt;div&gt;&lt;br&gt;&lt;/div&gt;" style="text;strokeColor=none;align=left;fillColor=none;html=1;verticalAlign=middle;whiteSpace=wrap;rounded=0;" parent="1" vertex="1">
          <mxGeometry x="350" y="985" width="40" height="64" as="geometry" />
        </mxCell>
        <mxCell id="4HpDZAh3RYJfs15AUqm1-83" value="" style="endArrow=classic;html=1;rounded=0;strokeWidth=2;exitX=0.05;exitY=0.5;exitDx=0;exitDy=0;exitPerimeter=0;" parent="1" source="4HpDZAh3RYJfs15AUqm1-94" edge="1">
          <mxGeometry width="50" height="50" relative="1" as="geometry">
            <mxPoint x="604" y="936" as="sourcePoint" />
            <mxPoint x="289" y="936" as="targetPoint" />
          </mxGeometry>
        </mxCell>
        <mxCell id="4HpDZAh3RYJfs15AUqm1-84" value="" style="group" parent="1" vertex="1" connectable="0">
          <mxGeometry x="140" y="800" width="200" height="220" as="geometry" />
        </mxCell>
        <mxCell id="4HpDZAh3RYJfs15AUqm1-86" value="" style="rounded=1;whiteSpace=wrap;html=1;strokeWidth=3;fillColor=none;" parent="4HpDZAh3RYJfs15AUqm1-84" vertex="1">
          <mxGeometry x="20" width="180" height="220" as="geometry" />
        </mxCell>
        <mxCell id="4HpDZAh3RYJfs15AUqm1-87" value="&lt;font style=&quot;font-size: 24px;&quot;&gt;Head Node&lt;/font&gt;" style="text;strokeColor=none;align=center;fillColor=none;html=1;verticalAlign=middle;whiteSpace=wrap;rounded=0;" parent="4HpDZAh3RYJfs15AUqm1-84" vertex="1">
          <mxGeometry x="37.5" y="6" width="145" height="30" as="geometry" />
        </mxCell>
        <mxCell id="4HpDZAh3RYJfs15AUqm1-88" value="&lt;font style=&quot;font-size: 18px;&quot;&gt;StarExec&lt;/font&gt;&lt;div style=&quot;font-size: 18px;&quot;&gt;&lt;font style=&quot;font-size: 18px;&quot;&gt;head node&lt;/font&gt;&lt;/div&gt;" style="text;strokeColor=none;align=center;fillColor=none;html=1;verticalAlign=middle;whiteSpace=wrap;rounded=0;" parent="4HpDZAh3RYJfs15AUqm1-84" vertex="1">
          <mxGeometry x="27.5" y="46" width="165" height="44" as="geometry" />
        </mxCell>
        <mxCell id="4HpDZAh3RYJfs15AUqm1-89" value="&lt;ul style=&quot;font-size: 18px; line-height: 120%;&quot;&gt;&lt;li&gt;&lt;font style=&quot;font-size: 18px;&quot;&gt;StarExec&lt;/font&gt;&lt;/li&gt;&lt;li&gt;&lt;font style=&quot;font-size: 18px;&quot;&gt;Local backend&lt;/font&gt;&lt;/li&gt;&lt;li&gt;SGE client backend&lt;/li&gt;&lt;/ul&gt;" style="text;strokeColor=none;align=left;fillColor=none;html=1;verticalAlign=middle;whiteSpace=wrap;rounded=0;" parent="4HpDZAh3RYJfs15AUqm1-84" vertex="1">
          <mxGeometry x="10" y="129" width="165" height="70" as="geometry" />
        </mxCell>
        <mxCell id="4HpDZAh3RYJfs15AUqm1-90" value="" style="endArrow=none;html=1;rounded=0;strokeWidth=2;" parent="4HpDZAh3RYJfs15AUqm1-84" edge="1">
          <mxGeometry width="50" height="50" relative="1" as="geometry">
            <mxPoint x="20" y="39" as="sourcePoint" />
            <mxPoint x="200" y="39" as="targetPoint" />
          </mxGeometry>
        </mxCell>
        <mxCell id="4HpDZAh3RYJfs15AUqm1-91" style="edgeStyle=orthogonalEdgeStyle;rounded=0;orthogonalLoop=1;jettySize=auto;html=1;exitX=0.5;exitY=1;exitDx=0;exitDy=0;" parent="4HpDZAh3RYJfs15AUqm1-84" source="4HpDZAh3RYJfs15AUqm1-86" target="4HpDZAh3RYJfs15AUqm1-86" edge="1">
          <mxGeometry relative="1" as="geometry" />
        </mxCell>
        <mxCell id="4HpDZAh3RYJfs15AUqm1-77" value="" style="endArrow=classic;html=1;rounded=0;strokeWidth=2;" parent="4HpDZAh3RYJfs15AUqm1-84" edge="1">
          <mxGeometry width="50" height="50" relative="1" as="geometry">
            <mxPoint x="150" y="180" as="sourcePoint" />
            <mxPoint x="250" y="180" as="targetPoint" />
          </mxGeometry>
        </mxCell>
        <mxCell id="4HpDZAh3RYJfs15AUqm1-92" value="" style="endArrow=none;html=1;rounded=0;strokeWidth=2;" parent="1" edge="1">
          <mxGeometry width="50" height="50" relative="1" as="geometry">
            <mxPoint x="410" y="1041" as="sourcePoint" />
            <mxPoint x="410" y="935" as="targetPoint" />
          </mxGeometry>
        </mxCell>
        <mxCell id="4HpDZAh3RYJfs15AUqm1-93" value="" style="endArrow=none;html=1;rounded=0;strokeWidth=2;entryX=0.017;entryY=0.496;entryDx=0;entryDy=0;entryPerimeter=0;" parent="1" edge="1">
          <mxGeometry width="50" height="50" relative="1" as="geometry">
            <mxPoint x="410" y="1040" as="sourcePoint" />
            <mxPoint x="430.34000000000003" y="1039.92" as="targetPoint" />
          </mxGeometry>
        </mxCell>
        <mxCell id="4HpDZAh3RYJfs15AUqm1-94" value="" style="verticalLabelPosition=bottom;verticalAlign=top;html=1;shape=mxgraph.basic.arc;startAngle=0.7468173254495136;endAngle=0.2543004380527166;strokeWidth=2;" parent="1" vertex="1">
          <mxGeometry x="379" y="926" width="20" height="20" as="geometry" />
        </mxCell>
        <mxCell id="4HpDZAh3RYJfs15AUqm1-95" value="" style="endArrow=none;html=1;rounded=0;strokeWidth=2;exitX=1.05;exitY=0.7;exitDx=0;exitDy=0;exitPerimeter=0;" parent="1" edge="1">
          <mxGeometry width="50" height="50" relative="1" as="geometry">
            <mxPoint x="398.9999999999999" y="936.0000000000001" as="sourcePoint" />
            <mxPoint x="409" y="936" as="targetPoint" />
          </mxGeometry>
        </mxCell>
        <mxCell id="4HpDZAh3RYJfs15AUqm1-96" value="" style="endArrow=none;html=1;rounded=0;strokeWidth=2;" parent="1" edge="1">
          <mxGeometry width="50" height="50" relative="1" as="geometry">
            <mxPoint x="849.48" y="770.47" as="sourcePoint" />
            <mxPoint x="390" y="770" as="targetPoint" />
          </mxGeometry>
        </mxCell>
        <mxCell id="4HpDZAh3RYJfs15AUqm1-97" value="" style="endArrow=classic;html=1;rounded=0;strokeWidth=2;entryX=0.5;entryY=0;entryDx=0;entryDy=0;" parent="1" edge="1">
          <mxGeometry width="50" height="50" relative="1" as="geometry">
            <mxPoint x="550" y="770" as="sourcePoint" />
            <mxPoint x="550" y="802" as="targetPoint" />
          </mxGeometry>
        </mxCell>
        <mxCell id="4HpDZAh3RYJfs15AUqm1-98" value="" style="endArrow=classic;html=1;rounded=0;strokeWidth=2;entryX=0.5;entryY=0;entryDx=0;entryDy=0;" parent="1" edge="1">
          <mxGeometry width="50" height="50" relative="1" as="geometry">
            <mxPoint x="850" y="770" as="sourcePoint" />
            <mxPoint x="850" y="802" as="targetPoint" />
          </mxGeometry>
        </mxCell>
      </root>
    </mxGraphModel>
  </diagram>
</mxfile>
